<?xml version="1.0" encoding="utf-8"?>
<!-- Generator: Adobe Illustrator 22.0.0, SVG Export Plug-In . SVG Version: 6.00 Build 0)  -->
<svg version="1.1" id="圖層_1" xmlns="http://www.w3.org/2000/svg" xmlns:xlink="http://www.w3.org/1999/xlink" x="0px" y="0px"
	 viewBox="0 0 461.3 105" style="enable-background:new 0 0 461.3 105;" xml:space="preserve">
<style type="text/css">
	.st0{fill:#3E3A39;}
</style>
<g>
	<g>
		<path class="st0" d="M6.3,52.5c0-16,14.2-29.5,33.4-33.1v66.2V95c3.1,0.7,6.3,1.2,9.7,1.2v-9.7V18.5V8.8c-3.3,0-6.6,0.5-9.7,1.2
			C20.5,14.7,6.3,31.9,6.3,52.5z"/>
		<path class="st0" d="M63.8,84.9V20.2V11c-3.1-1-6.3-1.7-9.7-2v9.6v67.8V96c3.3-0.3,6.6-1,9.7-2c17.4-5.8,29.9-22.2,29.9-41.5
			C93.7,67.6,81.2,80.3,63.8,84.9z"/>
	</g>
</g>
<g>
	<g>
		<path class="st0" d="M112.4,20.3H99.2v-7.5h34.7v7.5h-13.2v36.2h-8.2L112.4,20.3L112.4,20.3z"/>
		<path class="st0" d="M139.9,54.8c-1.1-1.1-1.6-2.5-1.6-4.2V12.8h31.8v7.5h-23.6v10.1h21.8v7.5h-21.8v11.1h23.6v7.5h-26
			C142.4,56.5,141,55.9,139.9,54.8z"/>
		<path class="st0" d="M175.8,12.8h22.2c3.6,0,6.5,1,8.7,3c2.2,2,3.3,4.7,3.3,8.1v4.4c0,2.2-0.6,4-1.8,5.6s-2.9,2.8-5.1,3.7v0.1
			c1.3,0.9,2.2,1.9,2.9,3c0.7,1.1,1.3,2.7,1.9,4.7l3.3,11.1h-8.5l-3.2-10.4c-0.5-1.8-1.2-3.1-2.1-4c-0.9-0.9-2.1-1.3-3.4-1.3H184
			v15.6h-8.2L175.8,12.8L175.8,12.8z M196.4,33.4c1.7,0,3-0.5,3.9-1.4c1-0.9,1.4-2.1,1.4-3.7v-4c0-1.2-0.4-2.2-1.1-2.9
			c-0.7-0.7-1.7-1.1-2.9-1.1H184v13.1L196.4,33.4L196.4,33.4z"/>
		<path class="st0" d="M216.2,12.8h22.2c3.6,0,6.5,1,8.7,3c2.2,2,3.3,4.7,3.3,8.1v4.4c0,2.2-0.6,4-1.8,5.6s-2.9,2.8-5.1,3.7v0.1
			c1.3,0.9,2.2,1.9,2.9,3c0.7,1.1,1.3,2.7,1.9,4.7l3.3,11.1h-8.5L240,46.1c-0.5-1.8-1.2-3.1-2.1-4c-0.9-0.9-2.1-1.3-3.4-1.3h-10.1
			v15.6h-8.2L216.2,12.8L216.2,12.8z M236.8,33.4c1.7,0,3-0.5,3.9-1.4c1-0.9,1.4-2.1,1.4-3.7v-4c0-1.2-0.4-2.2-1.1-2.9
			c-0.7-0.7-1.7-1.1-2.9-1.1h-13.8v13.1L236.8,33.4L236.8,33.4z"/>
		<path class="st0" d="M267.6,39.5l-15.5-26.7h9l10.6,18.8l10.6-18.8h9l-15.5,26.7v16.9h-8.2L267.6,39.5L267.6,39.5z"/>
		<path class="st0" d="M313.6,54.9c-1.1-1.1-1.6-2.5-1.6-4.2V12.8h8.2V49h22.6v7.5h-25.1C316.1,56.5,314.7,55.9,313.6,54.9z"/>
		<path class="st0" d="M371.5,46.3h-15.6l-3.7,10.2h-8.6L360,12.8h3.7c2.6,0,4.3,1.2,5.3,3.7l14.8,39.9h-8.6L371.5,46.3z
			 M358.1,39.1h11.2l-5.5-15.7h-0.1L358.1,39.1z"/>
		<path class="st0" d="M392.9,55c-2.2-1.3-4-3.2-5.2-5.5c-1.2-2.4-1.8-5.1-1.8-8.2V12.8h8.2V41c0,2.5,0.6,4.5,1.8,6s2.8,2.3,4.7,2.3
			h6.3c2,0,3.6-0.8,4.8-2.3c1.2-1.5,1.8-3.5,1.8-6V12.8h8.2v28.4c0,3.1-0.6,5.8-1.8,8.2c-1.2,2.4-3,4.2-5.3,5.5
			c-2.3,1.3-4.9,1.9-7.8,1.9h-6.3C397.7,57,395.1,56.3,392.9,55z"/>
	</g>
	<g>
		<path class="st0" d="M105,73.8h11.5v1.3h-10.1v7.5h9.1V84h-9.1v8.9H105L105,73.8L105,73.8z"/>
		<path class="st0" d="M119.8,73.8h8.6c1.3,0,2.3,0.4,3,1.1s1.1,1.7,1.1,2.9v2.1c0,1-0.3,1.8-0.9,2.5c-0.6,0.7-1.4,1.2-2.4,1.5v0
			c0.5,0.3,1,0.7,1.4,1.3c0.4,0.6,0.7,1.4,1,2.2l1.5,5.3h-1.5l-1.5-5.3c-0.3-1-0.7-1.7-1.3-2.3c-0.6-0.5-1.3-0.9-2.1-0.9h-5.6v8.4
			h-1.4L119.8,73.8L119.8,73.8z M127.8,83.1c1,0,1.9-0.3,2.5-0.9c0.6-0.6,0.9-1.3,0.9-2.3v-2.2c0-0.8-0.2-1.4-0.7-1.9
			c-0.5-0.5-1.2-0.7-2-0.7h-7.2v7.9H127.8z"/>
		<path class="st0" d="M138.8,92.2c-0.9-0.5-1.6-1.3-2.1-2.3c-0.5-1-0.7-2.2-0.7-3.5v-6.2c0-1.3,0.2-2.5,0.7-3.5
			c0.5-1,1.2-1.8,2.1-2.3c0.9-0.5,1.9-0.8,3.1-0.8h2.7c1.2,0,2.2,0.3,3.1,0.8c0.9,0.5,1.6,1.3,2.1,2.3c0.5,1,0.7,2.2,0.7,3.5v6.2
			c0,1.3-0.2,2.5-0.7,3.5c-0.5,1-1.2,1.8-2.1,2.3c-0.9,0.5-1.9,0.8-3.1,0.8h-2.7C140.7,93.1,139.7,92.8,138.8,92.2z M144.5,91.7
			c1.3,0,2.4-0.5,3.3-1.4c0.8-1,1.2-2.3,1.2-3.8v-6.2c0-1.6-0.4-2.9-1.2-3.9c-0.8-1-1.9-1.4-3.2-1.4h-2.6c-1.4,0-2.5,0.5-3.3,1.4
			c-0.8,1-1.2,2.3-1.2,3.9v6.2c0,1.6,0.4,2.8,1.2,3.8c0.8,1,1.9,1.4,3.2,1.4H144.5z"/>
		<path class="st0" d="M154.5,73.8h1.4l10.5,16.7V73.8h1.4v19.1h-1.4l-10.5-16.7v16.7h-1.4L154.5,73.8L154.5,73.8z"/>
		<path class="st0" d="M176.8,75.1H171v-1.3h13v1.3h-5.8v17.7h-1.4L176.8,75.1L176.8,75.1z"/>
		<path class="st0" d="M184.9,85.3h6.9v1.3h-6.9V85.3z"/>
		<path class="st0" d="M196,92.5c-0.2-0.3-0.4-0.6-0.4-1.1V73.8h11.8v1.3h-10.3v7.4h9.5v1.3h-9.5v7.7h10.3v1.3H197
			C196.6,92.8,196.3,92.7,196,92.5z"/>
		<path class="st0" d="M211.1,73.8h1.4l10.5,16.7V73.8h1.4v19.1h-1.4l-10.5-16.7v16.7h-1.4L211.1,73.8L211.1,73.8z"/>
		<path class="st0" d="M229.3,92.5c-0.2-0.2-0.4-0.6-0.4-1V73.8h7.2c1.2,0,2.3,0.3,3.3,0.8c1,0.5,1.7,1.2,2.2,2.1
			c0.5,0.9,0.8,2,0.8,3.2v6.3c0,2.2-0.5,3.9-1.6,5c-1.1,1.1-2.6,1.7-4.6,1.7h-6C229.9,92.8,229.5,92.7,229.3,92.5z M236.2,91.5
			c1.6,0,2.8-0.5,3.6-1.4c0.8-0.9,1.2-2.2,1.2-4v-6.3c0-1.4-0.5-2.6-1.3-3.5c-0.9-0.9-2.1-1.3-3.5-1.3h-5.8v16.4L236.2,91.5
			L236.2,91.5z"/>
		<path class="st0" d="M254.8,91.4l-3.1-17.7h1.4l3,17.2h0l4.9-16.2h0.6c0.5,0,0.9,0.3,1,0.9l4.4,15.3h0l3-17.2h1.4l-3.1,17.7
			c-0.1,0.5-0.2,0.8-0.5,1.1c-0.2,0.2-0.5,0.4-0.9,0.4h-0.6l-4.6-16h0l-4.8,16h-0.6C255.5,92.8,255,92.4,254.8,91.4z"/>
		<path class="st0" d="M275,92.5c-0.2-0.3-0.4-0.6-0.4-1.1V73.8h11.8v1.3h-10.3v7.4h9.5v1.3h-9.5v7.7h10.3v1.3H276
			C275.6,92.8,275.3,92.7,275,92.5z"/>
		<path class="st0" d="M290.5,92.5c-0.2-0.3-0.4-0.6-0.4-1V73.8h7.6c1.4,0,2.6,0.4,3.5,1.1c0.9,0.7,1.3,1.7,1.3,3v1.6
			c0,0.7-0.2,1.4-0.5,2.1c-0.3,0.6-0.7,1.1-1.2,1.4v0c0.9,0.2,1.6,0.7,2.1,1.4c0.5,0.7,0.8,1.5,0.8,2.4v1.5c0,1.4-0.4,2.6-1.3,3.4
			c-0.9,0.9-2.1,1.3-3.5,1.3h-7.4C291.1,92.8,290.8,92.7,290.5,92.5z M298.3,82.6c0.9,0,1.6-0.3,2.1-0.9s0.8-1.4,0.8-2.3v-1.6
			c0-0.8-0.3-1.4-0.9-1.9c-0.6-0.5-1.4-0.8-2.5-0.8h-6.1v7.5H298.3z M298.7,91.5c1.1,0,1.9-0.3,2.6-0.9c0.7-0.6,1-1.4,1-2.5v-1.5
			c0-0.8-0.3-1.5-0.9-2c-0.6-0.5-1.3-0.8-2.2-0.8h-7.6v7.6L298.7,91.5L298.7,91.5z"/>
		<path class="st0" d="M314.2,92.5c-0.2-0.2-0.4-0.6-0.4-1V73.8h7.2c1.2,0,2.3,0.3,3.3,0.8c1,0.5,1.7,1.2,2.2,2.1
			c0.5,0.9,0.8,2,0.8,3.2v6.3c0,2.2-0.5,3.9-1.6,5c-1.1,1.1-2.6,1.7-4.6,1.7h-6C314.7,92.8,314.4,92.7,314.2,92.5z M321.1,91.5
			c1.6,0,2.8-0.5,3.6-1.4c0.8-0.9,1.2-2.2,1.2-4v-6.3c0-1.4-0.5-2.6-1.3-3.5c-0.9-0.9-2.1-1.3-3.5-1.3h-5.8v16.4L321.1,91.5
			L321.1,91.5z"/>
		<path class="st0" d="M331.5,92.5c-0.2-0.3-0.4-0.6-0.4-1.1V73.8h11.8v1.3h-10.3v7.4h9.5v1.3h-9.5v7.7h10.3v1.3h-10.4
			C332.1,92.8,331.8,92.7,331.5,92.5z"/>
		<path class="st0" d="M351.5,91.9l-6.3-18.1h1.5l5.9,17.2h0l6-17.2h1.5l-6.7,19.1h-0.7C352.1,92.8,351.7,92.5,351.5,91.9z"/>
		<path class="st0" d="M363.3,92.5c-0.2-0.3-0.4-0.6-0.4-1.1V73.8h11.8v1.3h-10.3v7.4h9.5v1.3h-9.5v7.7h10.3v1.3h-10.4
			C363.9,92.8,363.6,92.7,363.3,92.5z"/>
		<path class="st0" d="M378.8,92.5c-0.2-0.2-0.4-0.6-0.4-1.1V73.8h1.4v17.7h9.9v1.4h-10C379.3,92.8,379,92.7,378.8,92.5z"/>
		<path class="st0" d="M394.4,92.2c-0.9-0.5-1.6-1.3-2.1-2.3c-0.5-1-0.7-2.2-0.7-3.5v-6.2c0-1.3,0.2-2.5,0.7-3.5
			c0.5-1,1.2-1.8,2.1-2.3s1.9-0.8,3.1-0.8h2.7c1.2,0,2.2,0.3,3.1,0.8s1.6,1.3,2.1,2.3c0.5,1,0.7,2.2,0.7,3.5v6.2
			c0,1.3-0.2,2.5-0.7,3.5c-0.5,1-1.2,1.8-2.1,2.3s-1.9,0.8-3.1,0.8h-2.7C396.4,93.1,395.3,92.8,394.4,92.2z M400.2,91.7
			c1.3,0,2.4-0.5,3.3-1.4c0.8-1,1.2-2.3,1.2-3.8v-6.2c0-1.6-0.4-2.9-1.2-3.9c-0.8-1-1.9-1.4-3.2-1.4h-2.6c-1.4,0-2.5,0.5-3.3,1.4
			c-0.8,1-1.2,2.3-1.2,3.9v6.2c0,1.6,0.4,2.8,1.2,3.8c0.8,1,1.9,1.4,3.2,1.4H400.2z"/>
		<path class="st0" d="M410.1,73.8h8.6c1.3,0,2.3,0.4,3.1,1.1c0.8,0.7,1.2,1.7,1.2,2.9v3c0,1.3-0.4,2.4-1.2,3.2
			c-0.8,0.8-1.9,1.2-3.3,1.2h-6.8v7.6h-1.4L410.1,73.8L410.1,73.8z M418.4,83.9c1,0,1.7-0.3,2.3-0.9c0.6-0.5,0.9-1.3,0.9-2.2v-3
			c0-0.8-0.3-1.4-0.8-1.9c-0.5-0.5-1.2-0.7-2.1-0.7h-7.1v8.8L418.4,83.9L418.4,83.9z"/>
		<path class="st0" d="M426.6,92.5c-0.2-0.3-0.4-0.6-0.4-1.1V73.8H438v1.3h-10.3v7.4h9.5v1.3h-9.5v7.7H438v1.3h-10.4
			C427.1,92.8,426.8,92.7,426.6,92.5z"/>
		<path class="st0" d="M441.7,73.8h8.6c1.3,0,2.3,0.4,3,1.1s1.1,1.7,1.1,2.9v2.1c0,1-0.3,1.8-0.9,2.5c-0.6,0.7-1.4,1.2-2.4,1.5v0
			c0.5,0.3,1,0.7,1.4,1.3c0.4,0.6,0.7,1.4,1,2.2l1.5,5.3h-1.5l-1.5-5.3c-0.3-1-0.7-1.7-1.3-2.3c-0.6-0.5-1.3-0.9-2.1-0.9H443v8.4
			h-1.4L441.7,73.8L441.7,73.8z M449.6,83.1c1,0,1.9-0.3,2.5-0.9c0.6-0.6,0.9-1.3,0.9-2.3v-2.2c0-0.8-0.2-1.4-0.7-1.9
			c-0.5-0.5-1.2-0.7-2-0.7h-7.2v7.9H449.6z"/>
	</g>
</g>
</svg>
